{
    "asset" : {
        "generator" : "Khronos glTF Blender I/O v1.7.33",
        "version" : "2.0"
    },
    "scene" : 0,
    "scenes" : [
        {
            "name" : "Scene",
            "nodes" : [
                0,
                1,
                2,
                3,
                4,
                5,
                6,
                7,
                8,
                9,
                10
            ]
        }
    ],
    "nodes" : [
        {
            "name" : "Camera.001",
            "rotation" : [
                0.483536034822464,
                0.33687159419059753,
                -0.20870360732078552,
                0.7804827094078064
            ],
            "translation" : [
                7.481131553649902,
                5.34366512298584,
                6.5076398849487305
            ]
        },
        {
            "name" : "Lamp",
            "rotation" : [
                0.16907551884651184,
                0.7558804750442505,
                -0.2721710503101349,
                0.5709475874900818
            ],
            "translation" : [
                0,
                1.600000023841858,
                0
            ]
        },
        {
            "name" : "Camera.002",
            "rotation" : [
                0.483536034822464,
                0.33687159419059753,
                -0.20870360732078552,
                0.7804827094078064
            ],
            "translation" : [
                7.481131553649902,
                5.34366512298584,
                6.5076398849487305
            ]
        },
        {
            "name" : "Lamp.001",
            "rotation" : [
                0.16907551884651184,
                0.7558804750442505,
                -0.2721710503101349,
                0.5709475874900818
            ],
            "translation" : [
                0,
                1.600000023841858,
                0
            ]
        },
        {
            "name" : "Light.001",
            "rotation" : [
                0.16907575726509094,
                0.7558803558349609,
                -0.27217137813568115,
                0.570947527885437
            ],
            "translation" : [
                4.076245307922363,
                5.903861999511719,
                -1.0054539442062378
            ]
        },
        {
            "name" : "Camera.003",
            "rotation" : [
                0.483536034822464,
                0.33687159419059753,
                -0.20870360732078552,
                0.7804827094078064
            ],
            "translation" : [
                7.358891487121582,
                4.958309173583984,
                6.925790786743164
            ]
        },
        {
            "name" : "Camera.004",
            "rotation" : [
                0.483536034822464,
                0.33687159419059753,
                -0.20870360732078552,
                0.7804827094078064
            ],
            "translation" : [
                7.481131553649902,
                5.34366512298584,
                6.5076398849487305
            ]
        },
        {
            "name" : "Lamp.002",
            "rotation" : [
                0.16907551884651184,
                0.7558804750442505,
                -0.2721710503101349,
                0.5709475874900818
            ],
            "translation" : [
                0,
                1.600000023841858,
                0
            ]
        },
        {
            "name" : "Light.002",
            "rotation" : [
                0.16907575726509094,
                0.7558803558349609,
                -0.27217137813568115,
                0.570947527885437
            ],
            "translation" : [
                4.076245307922363,
                5.903861999511719,
                -1.0054539442062378
            ]
        },
        {
            "name" : "Camera.005",
            "rotation" : [
                0.483536034822464,
                0.33687159419059753,
                -0.20870360732078552,
                0.7804827094078064
            ],
            "translation" : [
                7.358891487121582,
                4.958309173583984,
                6.925790786743164
            ]
        },
        {
            "mesh" : 0,
            "name" : "duck",
            "rotation" : [
                0.7071068286895752,
                0,
                0,
                0.7071068286895752
            ],
            "scale" : [
                0.006606108509004116,
                0.006606108509004116,
                0.006606108509004116
            ]
        }
    ],
    "materials" : [
        {
            "doubleSided" : true,
            "name" : "Plastic.001",
            "pbrMetallicRoughness" : {
                "baseColorFactor" : [
                    0,
                    0,
                    0,
                    1
                ],
                "metallicFactor" : 0,
                "roughnessFactor" : 0.6978280544281006
            }
        },
        {
            "doubleSided" : true,
            "name" : "Paint_(1).001",
            "pbrMetallicRoughness" : {
                "baseColorFactor" : [
                    0.08630000054836273,
                    0.08240000158548355,
                    0.08240000158548355,
                    1
                ],
                "metallicFactor" : 0,
                "roughnessFactor" : 0.7968996167182922
            }
        },
        {
            "doubleSided" : true,
            "name" : "Paint_(2).001",
            "pbrMetallicRoughness" : {
                "baseColorFactor" : [
                    1,
                    0.7646999955177307,
                    0,
                    1
                ],
                "metallicFactor" : 0
            }
        },
        {
            "doubleSided" : true,
            "name" : "Paint_(3).001",
            "pbrMetallicRoughness" : {
                "baseColorFactor" : [
                    0.6078000068664551,
                    0.14900000393390656,
                    0.14900000393390656,
                    1
                ],
                "metallicFactor" : 0
            }
        },
        {
            "doubleSided" : true,
            "name" : "diffuse_Blue.001",
            "pbrMetallicRoughness" : {
                "baseColorFactor" : [
                    0,
                    0,
                    1,
                    1
                ],
                "metallicFactor" : 0
            }
        },
        {
            "doubleSided" : true,
            "name" : "diffuse_0.001",
            "pbrMetallicRoughness" : {
                "baseColorFactor" : [
                    0.7843000292778015,
                    0,
                    0,
                    1
                ],
                "metallicFactor" : 0
            }
        }
    ],
    "meshes" : [
        {
            "name" : "object_1.001",
            "primitives" : [
                {
                    "attributes" : {
                        "POSITION" : 0,
                        "NORMAL" : 1,
                        "TEXCOORD_0" : 2
                    },
                    "indices" : 3,
                    "material" : 0
                },
                {
                    "attributes" : {
                        "POSITION" : 4,
                        "NORMAL" : 5,
                        "TEXCOORD_0" : 6
                    },
                    "indices" : 7,
                    "material" : 1
                },
                {
                    "attributes" : {
                        "POSITION" : 8,
                        "NORMAL" : 9,
                        "TEXCOORD_0" : 10
                    },
                    "indices" : 11,
                    "material" : 2
                },
                {
                    "attributes" : {
                        "POSITION" : 12,
                        "NORMAL" : 13,
                        "TEXCOORD_0" : 14
                    },
                    "indices" : 15,
                    "material" : 3
                },
                {
                    "attributes" : {
                        "POSITION" : 16,
                        "NORMAL" : 17,
                        "TEXCOORD_0" : 18
                    },
                    "indices" : 19,
                    "material" : 4
                },
                {
                    "attributes" : {
                        "POSITION" : 20,
                        "NORMAL" : 21,
                        "TEXCOORD_0" : 22
                    },
                    "indices" : 23,
                    "material" : 5
                }
            ]
        }
    ],
    "accessors" : [
        {
            "bufferView" : 0,
            "componentType" : 5126,
            "count" : 854,
            "max" : [
                33.33963394165039,
                8.785269737243652,
                -37.69717788696289
            ],
            "min" : [
                30.598133087158203,
                -8.785265922546387,
                -40.80301284790039
            ],
            "type" : "VEC3"
        },
        {
            "bufferView" : 1,
            "componentType" : 5126,
            "count" : 854,
            "type" : "VEC3"
        },
        {
            "bufferView" : 2,
            "componentType" : 5126,
            "count" : 854,
            "type" : "VEC2"
        },
        {
            "bufferView" : 3,
            "componentType" : 5123,
            "count" : 4224,
            "type" : "SCALAR"
        },
        {
            "bufferView" : 4,
            "componentType" : 5126,
            "count" : 39299,
            "max" : [
                36.68906021118164,
                33.01475143432617,
                16.865751266479492
            ],
            "min" : [
                -54.96809768676758,
                -33.01475143432617,
                -49.6810302734375
            ],
            "type" : "VEC3"
        },
        {
            "bufferView" : 5,
            "componentType" : 5126,
            "count" : 39299,
            "type" : "VEC3"
        },
        {
            "bufferView" : 6,
            "componentType" : 5126,
            "count" : 39299,
            "type" : "VEC2"
        },
        {
            "bufferView" : 7,
            "componentType" : 5123,
            "count" : 224418,
            "type" : "SCALAR"
        },
        {
            "bufferView" : 8,
            "componentType" : 5126,
            "count" : 6938,
            "max" : [
                46.63163375854492,
                8.195594787597656,
                -19.992891311645508
            ],
            "min" : [
                34.58415603637695,
                -8.195592880249023,
                -39.599998474121094
            ],
            "type" : "VEC3"
        },
        {
            "bufferView" : 9,
            "componentType" : 5126,
            "count" : 6938,
            "type" : "VEC3"
        },
        {
            "bufferView" : 10,
            "componentType" : 5126,
            "count" : 6938,
            "type" : "VEC2"
        },
        {
            "bufferView" : 11,
            "componentType" : 5123,
            "count" : 39366,
            "type" : "SCALAR"
        },
        {
            "bufferView" : 12,
            "componentType" : 5126,
            "count" : 11242,
            "max" : [
                18.392520904541016,
                35.48733901977539,
                10.750835418701172
            ],
            "min" : [
                -35.67585754394531,
                -19.511533737182617,
                -54.80402755737305
            ],
            "type" : "VEC3"
        },
        {
            "bufferView" : 13,
            "componentType" : 5126,
            "count" : 11242,
            "type" : "VEC3"
        },
        {
            "bufferView" : 14,
            "componentType" : 5126,
            "count" : 11242,
            "type" : "VEC2"
        },
        {
            "bufferView" : 15,
            "componentType" : 5123,
            "count" : 58032,
            "type" : "SCALAR"
        },
        {
            "bufferView" : 16,
            "componentType" : 5126,
            "count" : 1982,
            "max" : [
                33.53167724609375,
                11.047052383422852,
                -36.56068420410156
            ],
            "min" : [
                29.404504776000977,
                -11.047048568725586,
                -41.19436264038086
            ],
            "type" : "VEC3"
        },
        {
            "bufferView" : 17,
            "componentType" : 5126,
            "count" : 1982,
            "type" : "VEC3"
        },
        {
            "bufferView" : 18,
            "componentType" : 5126,
            "count" : 1982,
            "type" : "VEC2"
        },
        {
            "bufferView" : 19,
            "componentType" : 5123,
            "count" : 10314,
            "type" : "SCALAR"
        },
        {
            "bufferView" : 20,
            "componentType" : 5126,
            "count" : 158,
            "max" : [
                32.08684158325195,
                7.561186790466309,
                -38.499080657958984
            ],
            "min" : [
                31.325014114379883,
                -7.561182975769043,
                -39.36980056762695
            ],
            "type" : "VEC3"
        },
        {
            "bufferView" : 21,
            "componentType" : 5126,
            "count" : 158,
            "type" : "VEC3"
        },
        {
            "bufferView" : 22,
            "componentType" : 5126,
            "count" : 158,
            "type" : "VEC2"
        },
        {
            "bufferView" : 23,
            "componentType" : 5123,
            "count" : 480,
            "type" : "SCALAR"
        }
    ],
    "bufferViews" : [
        {
            "buffer" : 0,
            "byteLength" : 10248,
            "byteOffset" : 0
        },
        {
            "buffer" : 0,
            "byteLength" : 10248,
            "byteOffset" : 10248
        },
        {
            "buffer" : 0,
            "byteLength" : 6832,
            "byteOffset" : 20496
        },
        {
            "buffer" : 0,
            "byteLength" : 8448,
            "byteOffset" : 27328
        },
        {
            "buffer" : 0,
            "byteLength" : 471588,
            "byteOffset" : 35776
        },
        {
            "buffer" : 0,
            "byteLength" : 471588,
            "byteOffset" : 507364
        },
        {
            "buffer" : 0,
            "byteLength" : 314392,
            "byteOffset" : 978952
        },
        {
            "buffer" : 0,
            "byteLength" : 448836,
            "byteOffset" : 1293344
        },
        {
            "buffer" : 0,
            "byteLength" : 83256,
            "byteOffset" : 1742180
        },
        {
            "buffer" : 0,
            "byteLength" : 83256,
            "byteOffset" : 1825436
        },
        {
            "buffer" : 0,
            "byteLength" : 55504,
            "byteOffset" : 1908692
        },
        {
            "buffer" : 0,
            "byteLength" : 78732,
            "byteOffset" : 1964196
        },
        {
            "buffer" : 0,
            "byteLength" : 134904,
            "byteOffset" : 2042928
        },
        {
            "buffer" : 0,
            "byteLength" : 134904,
            "byteOffset" : 2177832
        },
        {
            "buffer" : 0,
            "byteLength" : 89936,
            "byteOffset" : 2312736
        },
        {
            "buffer" : 0,
            "byteLength" : 116064,
            "byteOffset" : 2402672
        },
        {
            "buffer" : 0,
            "byteLength" : 23784,
            "byteOffset" : 2518736
        },
        {
            "buffer" : 0,
            "byteLength" : 23784,
            "byteOffset" : 2542520
        },
        {
            "buffer" : 0,
            "byteLength" : 15856,
            "byteOffset" : 2566304
        },
        {
            "buffer" : 0,
            "byteLength" : 20628,
            "byteOffset" : 2582160
        },
        {
            "buffer" : 0,
            "byteLength" : 1896,
            "byteOffset" : 2602788
        },
        {
            "buffer" : 0,
            "byteLength" : 1896,
            "byteOffset" : 2604684
        },
        {
            "buffer" : 0,
            "byteLength" : 1264,
            "byteOffset" : 2606580
        },
        {
            "buffer" : 0,
            "byteLength" : 960,
            "byteOffset" : 2607844
        }
    ],
    "buffers" : [
        {
            "byteLength" : 2608804,
            "uri" : "data:application/octet-stream;base64,"
        }
    ]
}
